<svg width="498" height="574" viewBox="0 0 498 574" fill="none" xmlns="http://www.w3.org/2000/svg">
<path d="M175.356 556.36C173.496 556.36 171.836 555.93 170.376 555.07C168.936 554.19 167.816 553.01 167.016 551.53C166.236 550.03 165.846 548.4 165.846 546.64C165.846 544.58 166.366 542.82 167.406 541.36C168.446 539.88 169.776 538.77 171.396 538.03C173.036 537.29 174.706 536.92 176.406 536.92C178.306 536.92 179.976 537.37 181.416 538.27C182.856 539.15 183.956 540.32 184.716 541.78C185.496 543.24 185.886 544.79 185.886 546.43C185.886 548.25 185.406 549.92 184.446 551.44C183.486 552.96 182.196 554.16 180.576 555.04C178.976 555.92 177.236 556.36 175.356 556.36ZM176.406 555.73C177.766 555.73 178.986 555.4 180.066 554.74C181.166 554.08 182.026 553.11 182.646 551.83C183.286 550.55 183.606 549.03 183.606 547.27C183.606 545.39 183.256 543.72 182.556 542.26C181.856 540.8 180.866 539.66 179.586 538.84C178.326 538.02 176.846 537.61 175.146 537.61C172.946 537.61 171.226 538.32 169.986 539.74C168.746 541.16 168.126 543.11 168.126 545.59C168.126 547.47 168.476 549.19 169.176 550.75C169.876 552.29 170.856 553.51 172.116 554.41C173.376 555.29 174.806 555.73 176.406 555.73ZM195.595 556.36C194.195 556.36 192.945 556.03 191.845 555.37C190.765 554.71 189.925 553.82 189.325 552.7C188.725 551.58 188.425 550.37 188.425 549.07C188.425 547.51 188.825 546.17 189.625 545.05C190.445 543.91 191.475 543.05 192.715 542.47C193.975 541.89 195.255 541.6 196.555 541.6C197.955 541.6 199.185 541.95 200.245 542.65C201.325 543.33 202.145 544.22 202.705 545.32C203.285 546.42 203.575 547.57 203.575 548.77C203.575 550.11 203.215 551.37 202.495 552.55C201.775 553.71 200.805 554.64 199.585 555.34C198.365 556.02 197.035 556.36 195.595 556.36ZM196.375 555.73C197.935 555.73 199.175 555.18 200.095 554.08C201.035 552.98 201.505 551.46 201.505 549.52C201.505 548.18 201.265 546.96 200.785 545.86C200.325 544.76 199.645 543.88 198.745 543.22C197.845 542.56 196.775 542.23 195.535 542.23C193.935 542.23 192.695 542.77 191.815 543.85C190.935 544.91 190.495 546.4 190.495 548.32C190.495 549.7 190.725 550.95 191.185 552.07C191.665 553.19 192.345 554.08 193.225 554.74C194.125 555.4 195.175 555.73 196.375 555.73ZM222.269 555.64C222.329 555.64 222.359 555.7 222.359 555.82C222.359 555.94 222.329 556 222.269 556C221.709 556 221.259 555.99 220.919 555.97L219.119 555.94L217.289 555.97C216.969 555.99 216.529 556 215.969 556C215.909 556 215.879 555.94 215.879 555.82C215.879 555.7 215.909 555.64 215.969 555.64C216.629 555.64 217.109 555.59 217.409 555.49C217.709 555.39 217.909 555.2 218.009 554.92C218.129 554.62 218.189 554.17 218.189 553.57V549.19H209.789V553.57C209.789 554.19 209.839 554.64 209.939 554.92C210.059 555.2 210.269 555.39 210.569 555.49C210.869 555.59 211.359 555.64 212.039 555.64C212.079 555.64 212.099 555.7 212.099 555.82C212.099 555.94 212.079 556 212.039 556C211.479 556 211.039 555.99 210.719 555.97L208.859 555.94L207.089 555.97C206.749 555.99 206.289 556 205.709 556C205.669 556 205.649 555.94 205.649 555.82C205.649 555.7 205.669 555.64 205.709 555.64C206.369 555.64 206.849 555.59 207.149 555.49C207.469 555.39 207.689 555.2 207.809 554.92C207.929 554.62 207.989 554.17 207.989 553.57V544.39C207.989 543.79 207.929 543.35 207.809 543.07C207.709 542.79 207.499 542.6 207.179 542.5C206.879 542.38 206.399 542.32 205.739 542.32C205.699 542.32 205.679 542.26 205.679 542.14C205.679 542.02 205.699 541.96 205.739 541.96L207.089 541.99C207.849 542.03 208.439 542.05 208.859 542.05C209.359 542.05 209.989 542.03 210.749 541.99L212.039 541.96C212.079 541.96 212.099 542.02 212.099 542.14C212.099 542.26 212.079 542.32 212.039 542.32C211.399 542.32 210.919 542.38 210.599 542.5C210.279 542.62 210.059 542.83 209.939 543.13C209.839 543.41 209.789 543.85 209.789 544.45V548.65H218.189V544.45C218.189 543.85 218.129 543.41 218.009 543.13C217.909 542.83 217.699 542.62 217.379 542.5C217.079 542.38 216.609 542.32 215.969 542.32C215.909 542.32 215.879 542.26 215.879 542.14C215.879 542.02 215.909 541.96 215.969 541.96L217.289 541.99C218.009 542.03 218.619 542.05 219.119 542.05C219.559 542.05 220.159 542.03 220.919 541.99L222.269 541.96C222.329 541.96 222.359 542.02 222.359 542.14C222.359 542.26 222.329 542.32 222.269 542.32C221.609 542.32 221.119 542.38 220.799 542.5C220.499 542.6 220.289 542.79 220.169 543.07C220.049 543.35 219.989 543.79 219.989 544.39V553.57C219.989 554.17 220.049 554.62 220.169 554.92C220.289 555.2 220.499 555.39 220.799 555.49C221.119 555.59 221.609 555.64 222.269 555.64ZM241.741 537.25C241.781 537.25 241.801 537.31 241.801 537.43C241.801 537.55 241.781 537.61 241.741 537.61C241.021 537.61 240.291 537.88 239.551 538.42C238.811 538.94 238.151 539.66 237.571 540.58L233.551 546.76V553.57C233.551 554.19 233.611 554.64 233.731 554.92C233.851 555.2 234.081 555.39 234.421 555.49C234.781 555.59 235.341 555.64 236.101 555.64C236.161 555.64 236.191 555.7 236.191 555.82C236.191 555.94 236.161 556 236.101 556C235.481 556 235.001 555.99 234.661 555.97L232.561 555.94L230.491 555.97C230.131 555.99 229.641 556 229.021 556C228.961 556 228.931 555.94 228.931 555.82C228.931 555.7 228.961 555.64 229.021 555.64C229.781 555.64 230.331 555.59 230.671 555.49C231.031 555.39 231.271 555.2 231.391 554.92C231.531 554.62 231.601 554.17 231.601 553.57V547.24L226.621 539.95C226.061 539.07 225.531 538.46 225.031 538.12C224.531 537.78 223.951 537.61 223.291 537.61C223.231 537.61 223.201 537.55 223.201 537.43C223.201 537.31 223.231 537.25 223.291 537.25C223.531 537.25 223.891 537.27 224.371 537.31L225.421 537.34C226.101 537.34 226.961 537.32 228.001 537.28L229.621 537.25C229.661 537.25 229.681 537.31 229.681 537.43C229.681 537.55 229.661 537.61 229.621 537.61C228.581 537.61 228.061 537.82 228.061 538.24C228.061 538.46 228.161 538.71 228.361 538.99L233.191 546.07L236.851 540.46C237.291 539.76 237.511 539.17 237.511 538.69C237.511 537.97 236.971 537.61 235.891 537.61C235.851 537.61 235.831 537.55 235.831 537.43C235.831 537.31 235.851 537.25 235.891 537.25L237.301 537.28C238.061 537.32 238.761 537.34 239.401 537.34C239.741 537.34 240.151 537.32 240.631 537.28L241.741 537.25ZM258.158 555.64C258.218 555.64 258.248 555.7 258.248 555.82C258.248 555.94 258.218 556 258.158 556C257.598 556 257.148 555.99 256.808 555.97L255.008 555.94L253.178 555.97C252.858 555.99 252.418 556 251.858 556C251.798 556 251.768 555.94 251.768 555.82C251.768 555.7 251.798 555.64 251.858 555.64C252.518 555.64 252.998 555.59 253.298 555.49C253.598 555.39 253.798 555.2 253.898 554.92C254.018 554.62 254.078 554.17 254.078 553.57V549.19H245.678V553.57C245.678 554.19 245.728 554.64 245.828 554.92C245.948 555.2 246.158 555.39 246.458 555.49C246.758 555.59 247.248 555.64 247.928 555.64C247.968 555.64 247.988 555.7 247.988 555.82C247.988 555.94 247.968 556 247.928 556C247.368 556 246.928 555.99 246.608 555.97L244.748 555.94L242.978 555.97C242.638 555.99 242.178 556 241.598 556C241.558 556 241.538 555.94 241.538 555.82C241.538 555.7 241.558 555.64 241.598 555.64C242.258 555.64 242.738 555.59 243.038 555.49C243.358 555.39 243.578 555.2 243.698 554.92C243.818 554.62 243.878 554.17 243.878 553.57V544.39C243.878 543.79 243.818 543.35 243.698 543.07C243.598 542.79 243.388 542.6 243.068 542.5C242.768 542.38 242.288 542.32 241.628 542.32C241.588 542.32 241.568 542.26 241.568 542.14C241.568 542.02 241.588 541.96 241.628 541.96L242.978 541.99C243.738 542.03 244.328 542.05 244.748 542.05C245.248 542.05 245.878 542.03 246.638 541.99L247.928 541.96C247.968 541.96 247.988 542.02 247.988 542.14C247.988 542.26 247.968 542.32 247.928 542.32C247.288 542.32 246.808 542.38 246.488 542.5C246.168 542.62 245.948 542.83 245.828 543.13C245.728 543.41 245.678 543.85 245.678 544.45V548.65H254.078V544.45C254.078 543.85 254.018 543.41 253.898 543.13C253.798 542.83 253.588 542.62 253.268 542.5C252.968 542.38 252.498 542.32 251.858 542.32C251.798 542.32 251.768 542.26 251.768 542.14C251.768 542.02 251.798 541.96 251.858 541.96L253.178 541.99C253.898 542.03 254.508 542.05 255.008 542.05C255.448 542.05 256.048 542.03 256.808 541.99L258.158 541.96C258.218 541.96 258.248 542.02 258.248 542.14C258.248 542.26 258.218 542.32 258.158 542.32C257.498 542.32 257.008 542.38 256.688 542.5C256.388 542.6 256.178 542.79 256.058 543.07C255.938 543.35 255.878 543.79 255.878 544.39V553.57C255.878 554.17 255.938 554.62 256.058 554.92C256.178 555.2 256.388 555.39 256.688 555.49C257.008 555.59 257.498 555.64 258.158 555.64ZM275.89 555.64C275.97 555.64 276.01 555.7 276.01 555.82C276.01 555.94 275.97 556 275.89 556C275.53 556 274.95 555.98 274.15 555.94C273.35 555.9 272.77 555.88 272.41 555.88C272.09 555.88 271.67 555.9 271.15 555.94C270.63 555.98 270.23 556 269.95 556C269.87 556 269.83 555.94 269.83 555.82C269.83 555.7 269.87 555.64 269.95 555.64C270.47 555.64 270.85 555.58 271.09 555.46C271.35 555.32 271.48 555.08 271.48 554.74C271.48 554.44 271.36 554.02 271.12 553.48L269.08 549.1H264.88L263.59 552.31C263.27 553.07 263.11 553.7 263.11 554.2C263.11 554.72 263.29 555.09 263.65 555.31C264.01 555.53 264.56 555.64 265.3 555.64C265.4 555.64 265.45 555.7 265.45 555.82C265.45 555.94 265.4 556 265.3 556C265 556 264.59 555.98 264.07 555.94C263.51 555.9 262.99 555.88 262.51 555.88C262.01 555.88 261.42 555.9 260.74 555.94C260.14 555.98 259.66 556 259.3 556C259.2 556 259.15 555.94 259.15 555.82C259.15 555.7 259.2 555.64 259.3 555.64C259.92 555.64 260.41 555.56 260.77 555.4C261.13 555.22 261.46 554.88 261.76 554.38C262.08 553.88 262.46 553.1 262.9 552.04L267.22 541.51C267.26 541.43 267.32 541.39 267.4 541.39C267.48 541.39 267.53 541.43 267.55 541.51L272.38 551.89C272.9 553.01 273.31 553.82 273.61 554.32C273.93 554.82 274.25 555.17 274.57 555.37C274.91 555.55 275.35 555.64 275.89 555.64ZM265.09 548.56H268.84L266.83 544.24L265.09 548.56ZM279.413 542.35C278.653 542.35 278.053 542.46 277.613 542.68C277.173 542.88 276.823 543.23 276.563 543.73C276.323 544.23 276.133 544.94 275.993 545.86C275.993 545.9 275.933 545.92 275.813 545.92C275.713 545.92 275.663 545.9 275.663 545.86C275.723 545.4 275.793 544.66 275.873 543.64C275.953 542.62 275.993 541.84 275.993 541.3C275.993 541.2 276.053 541.15 276.173 541.15C276.293 541.15 276.353 541.2 276.353 541.3C276.353 541.56 276.503 541.73 276.803 541.81C277.103 541.87 277.473 541.9 277.913 541.9C279.673 541.94 281.183 541.96 282.443 541.96L285.053 541.93C285.413 541.91 285.883 541.9 286.463 541.9C287.183 541.9 287.713 541.86 288.053 541.78C288.393 541.68 288.613 541.48 288.713 541.18C288.753 541.12 288.823 541.09 288.923 541.09C289.023 541.09 289.073 541.12 289.073 541.18C288.953 543.34 288.893 544.9 288.893 545.86C288.893 545.9 288.833 545.92 288.713 545.92C288.613 545.92 288.563 545.9 288.563 545.86C288.543 544.96 288.433 544.26 288.233 543.76C288.053 543.26 287.743 542.9 287.303 542.68C286.863 542.46 286.253 542.35 285.473 542.35C284.613 542.35 284.043 542.49 283.763 542.77C283.483 543.03 283.343 543.57 283.343 544.39V553.57C283.343 554.19 283.403 554.64 283.523 554.92C283.643 555.2 283.873 555.39 284.213 555.49C284.553 555.59 285.113 555.64 285.893 555.64C285.953 555.64 285.983 555.7 285.983 555.82C285.983 555.94 285.953 556 285.893 556C285.273 556 284.793 555.99 284.453 555.97L282.353 555.94L280.343 555.97C279.983 555.99 279.483 556 278.843 556C278.803 556 278.783 555.94 278.783 555.82C278.783 555.7 278.803 555.64 278.843 555.64C279.603 555.64 280.163 555.59 280.523 555.49C280.883 555.39 281.123 555.2 281.243 554.92C281.383 554.62 281.453 554.17 281.453 553.57V544.33C281.453 543.75 281.403 543.33 281.303 543.07C281.223 542.79 281.043 542.6 280.763 542.5C280.483 542.4 280.033 542.35 279.413 542.35ZM295.346 553.45C295.346 554.03 295.406 554.45 295.526 554.71C295.646 554.97 295.866 555.15 296.186 555.25C296.506 555.33 297.026 555.37 297.746 555.37H301.016C302.156 555.37 303.066 555.02 303.746 554.32C304.426 553.62 304.876 552.65 305.096 551.41C305.096 551.35 305.146 551.33 305.246 551.35C305.366 551.35 305.426 551.38 305.426 551.44C305.246 553.1 305.156 554.47 305.156 555.55C305.156 555.71 305.126 555.83 305.066 555.91C305.006 555.97 304.886 556 304.706 556H290.846C290.806 556 290.786 555.94 290.786 555.82C290.786 555.7 290.806 555.64 290.846 555.64C291.606 555.64 292.156 555.59 292.496 555.49C292.856 555.39 293.096 555.2 293.216 554.92C293.336 554.62 293.396 554.17 293.396 553.57V539.68C293.396 539.08 293.336 538.64 293.216 538.36C293.096 538.08 292.856 537.89 292.496 537.79C292.156 537.67 291.606 537.61 290.846 537.61C290.806 537.61 290.786 537.55 290.786 537.43C290.786 537.31 290.806 537.25 290.846 537.25L292.316 537.28C293.156 537.32 293.836 537.34 294.356 537.34C294.916 537.34 295.616 537.32 296.456 537.28L297.896 537.25C297.956 537.25 297.986 537.31 297.986 537.43C297.986 537.55 297.956 537.61 297.896 537.61C297.156 537.61 296.606 537.67 296.246 537.79C295.906 537.89 295.666 538.09 295.526 538.39C295.406 538.67 295.346 539.11 295.346 539.71V553.45ZM318.152 552.01C318.152 551.95 318.202 551.92 318.302 551.92C318.422 551.92 318.482 551.95 318.482 552.01C318.342 553.45 318.272 554.63 318.272 555.55C318.272 555.71 318.242 555.83 318.182 555.91C318.122 555.97 318.002 556 317.822 556H306.842C306.802 556 306.782 555.94 306.782 555.82C306.782 555.7 306.802 555.64 306.842 555.64C307.502 555.64 307.982 555.59 308.282 555.49C308.582 555.39 308.782 555.2 308.882 554.92C309.002 554.62 309.062 554.17 309.062 553.57V544.39C309.062 543.79 309.002 543.35 308.882 543.07C308.782 542.79 308.582 542.6 308.282 542.5C307.982 542.38 307.502 542.32 306.842 542.32C306.802 542.32 306.782 542.26 306.782 542.14C306.782 542.02 306.802 541.96 306.842 541.96H317.282C317.482 541.96 317.582 542.04 317.582 542.2L317.612 544.06C317.632 544.44 317.642 544.92 317.642 545.5C317.642 545.56 317.582 545.59 317.462 545.59C317.342 545.59 317.282 545.56 317.282 545.5C317.202 544.58 316.862 543.83 316.262 543.25C315.682 542.65 314.962 542.35 314.102 542.35H313.262C312.562 542.35 312.052 542.41 311.732 542.53C311.412 542.63 311.192 542.82 311.072 543.1C310.952 543.38 310.892 543.82 310.892 544.42V548.53C312.832 548.51 314.152 548.46 314.852 548.38C315.572 548.28 315.982 548.23 316.082 548.23C316.182 548.23 316.232 548.44 316.232 548.86C316.232 549.32 316.182 549.55 316.082 549.55C316.002 549.55 315.602 549.5 314.882 549.4C314.162 549.28 312.832 549.2 310.892 549.16V553.45C310.892 554.03 310.952 554.47 311.072 554.77C311.192 555.05 311.412 555.25 311.732 555.37C312.072 555.47 312.582 555.52 313.262 555.52H314.702C315.502 555.52 316.222 555.2 316.862 554.56C317.502 553.9 317.932 553.05 318.152 552.01ZM332.068 552.01C332.068 551.95 332.118 551.92 332.218 551.92C332.338 551.92 332.398 551.95 332.398 552.01C332.258 553.45 332.188 554.63 332.188 555.55C332.188 555.71 332.158 555.83 332.098 555.91C332.038 555.97 331.918 556 331.738 556H320.758C320.718 556 320.698 555.94 320.698 555.82C320.698 555.7 320.718 555.64 320.758 555.64C321.418 555.64 321.898 555.59 322.198 555.49C322.498 555.39 322.698 555.2 322.798 554.92C322.918 554.62 322.978 554.17 322.978 553.57V544.39C322.978 543.79 322.918 543.35 322.798 543.07C322.698 542.79 322.498 542.6 322.198 542.5C321.898 542.38 321.418 542.32 320.758 542.32C320.718 542.32 320.698 542.26 320.698 542.14C320.698 542.02 320.718 541.96 320.758 541.96H331.198C331.398 541.96 331.498 542.04 331.498 542.2L331.528 544.06C331.548 544.44 331.558 544.92 331.558 545.5C331.558 545.56 331.498 545.59 331.378 545.59C331.258 545.59 331.198 545.56 331.198 545.5C331.118 544.58 330.778 543.83 330.178 543.25C329.598 542.65 328.878 542.35 328.018 542.35H327.178C326.478 542.35 325.968 542.41 325.648 542.53C325.328 542.63 325.108 542.82 324.988 543.1C324.868 543.38 324.808 543.82 324.808 544.42V548.53C326.748 548.51 328.068 548.46 328.768 548.38C329.488 548.28 329.898 548.23 329.998 548.23C330.098 548.23 330.148 548.44 330.148 548.86C330.148 549.32 330.098 549.55 329.998 549.55C329.918 549.55 329.518 549.5 328.798 549.4C328.078 549.28 326.748 549.2 324.808 549.16V553.45C324.808 554.03 324.868 554.47 324.988 554.77C325.108 555.05 325.328 555.25 325.648 555.37C325.988 555.47 326.498 555.52 327.178 555.52H328.618C329.418 555.52 330.138 555.2 330.778 554.56C331.418 553.9 331.848 553.05 332.068 552.01Z" fill="white"/>
<path d="M207.919 294.48C197.652 294.48 187.759 292.427 178.239 288.32C168.906 284.213 160.599 278.053 153.319 269.84C146.039 261.627 140.252 251.453 135.959 239.32C131.852 227.187 129.799 213 129.799 196.76C129.799 181.08 131.852 167.267 135.959 155.32C140.252 143.187 146.039 133.013 153.319 124.8C160.599 116.587 168.906 110.333 178.239 106.04C187.759 101.747 197.652 99.6 207.919 99.6C218.372 99.6 228.266 101.653 237.599 105.76C246.932 109.867 255.239 116.12 262.519 124.52C269.799 132.733 275.586 142.907 279.879 155.04C284.172 167.173 286.319 181.36 286.319 197.6C286.319 213.28 284.172 227.187 279.879 239.32C275.586 251.453 269.799 261.627 262.519 269.84C255.239 277.867 246.839 284.027 237.319 288.32C227.986 292.427 218.186 294.48 207.919 294.48ZM207.919 287.76C216.132 287.76 223.132 285.613 228.919 281.32C234.892 276.84 239.746 270.587 243.479 262.56C247.212 254.347 250.012 244.733 251.879 233.72C253.746 222.707 254.679 210.667 254.679 197.6C254.679 184.347 253.746 172.213 251.879 161.2C250.012 150.187 247.212 140.573 243.479 132.36C239.746 124.147 234.892 117.8 228.919 113.32C223.132 108.653 216.132 106.32 207.919 106.32C199.892 106.32 192.892 108.56 186.919 113.04C181.132 117.52 176.279 123.867 172.359 132.08C168.626 140.107 165.826 149.627 163.959 160.64C162.279 171.653 161.439 183.693 161.439 196.76C161.439 209.827 162.279 221.96 163.959 233.16C165.826 244.173 168.626 253.787 172.359 262C176.279 270.213 181.132 276.56 186.919 281.04C192.892 285.52 199.892 287.76 207.919 287.76Z" fill="white"/>
<path d="M250.388 415V409.68L281.748 406.04H296.308L327.668 409.68V415H250.388ZM273.348 415C273.722 407.72 273.908 401 273.908 394.84C274.095 388.493 274.188 382.24 274.188 376.08C274.375 369.733 274.468 363.107 274.468 356.2C274.468 349.107 274.468 341.173 274.468 332.4H303.588C303.588 341.173 303.588 349.107 303.588 356.2C303.588 363.107 303.588 369.733 303.588 376.08C303.775 382.24 303.868 388.493 303.868 394.84C304.055 401 304.242 407.72 304.428 415H273.348ZM283.148 358.44L222.948 229.08H255.148L301.628 331H299.108L299.668 329.32L343.908 229.08H352.868L294.348 358.44H283.148ZM209.508 234.4V229.08H280.348V234.4L250.108 238.04H234.708L209.508 234.4ZM318.428 234.4V229.08H368.548V234.4L346.708 237.2H341.108L318.428 234.4Z" fill="white"/>
<circle cx="254" cy="477" r="15" fill="white"/>
</svg>
