<?xml version="1.0" standalone="no"?>
<!DOCTYPE svg PUBLIC "-//W3C//DTD SVG 20010904//EN"
 "http://www.w3.org/TR/2001/REC-SVG-20010904/DTD/svg10.dtd">
<svg version="1.0" xmlns="http://www.w3.org/2000/svg"
 width="22px" height="22px" viewBox="0 0 512.000000 512.000000"
 preserveAspectRatio="xMidYMid meet">

<g transform="translate(0.000000,512.000000) scale(0.100000,-0.100000)"
fill="#000000" stroke="none">
<path d="M2330 5110 c-494 -48 -950 -230 -1350 -538 -195 -150 -448 -432 -594
-662 -63 -99 -186 -351 -230 -471 -49 -134 -102 -340 -128 -499 -31 -195 -31
-565 0 -760 45 -276 116 -498 237 -745 132 -269 269 -460 489 -681 221 -220
412 -357 681 -489 247 -121 469 -192 745 -237 195 -31 565 -31 760 0 276 45
498 116 745 237 269 132 460 269 681 489 220 221 357 412 489 681 88 179 132
296 180 476 63 240 78 371 78 649 0 278 -15 409 -78 649 -48 180 -92 297 -180
476 -132 269 -269 460 -489 681 -221 220 -412 357 -681 489 -246 121 -474 193
-740 235 -147 23 -475 34 -615 20z m465 -330 c400 -44 786 -197 1114 -443 123
-92 336 -305 428 -428 246 -328 399 -714 443 -1114 13 -116 13 -354 0 -470
-44 -400 -197 -786 -443 -1114 -92 -123 -305 -336 -428 -428 -328 -246 -714
-399 -1114 -443 -116 -13 -354 -13 -470 0 -400 44 -786 197 -1114 443 -123 92
-336 305 -428 428 -246 328 -399 714 -443 1114 -22 201 -10 455 31 670 60 312
210 644 412 914 92 123 305 336 428 428 322 241 713 398 1099 442 107 12 379
13 485 1z"/>
<path d="M2500 3989 c-29 -12 -67 -46 -83 -74 -9 -14 -13 -188 -17 -605 l-5
-585 -587 -5 c-573 -5 -587 -5 -614 -26 -53 -39 -69 -71 -69 -134 0 -63 16
-95 69 -134 27 -21 41 -21 614 -26 l587 -5 5 -587 c5 -573 5 -587 26 -614 39
-53 71 -69 134 -69 63 0 95 16 134 69 21 27 21 41 26 614 l5 587 587 5 c573 5
587 5 614 26 53 39 69 71 69 134 0 63 -16 95 -69 134 -27 21 -41 21 -614 26
l-587 5 -5 587 c-5 573 -5 587 -26 614 -11 15 -32 37 -46 47 -31 23 -111 32
-148 16z"/>
</g>
</svg>
